# xmcd
#
# Track frame offsets:
# 150
# 15838
# 33456
# 44341
# 62431
# 82319
# 102636
# 121244
# 137721
# 157078
# 177889
# 197854
# 215179
# 239376
#
# Disc length: 3454 seconds
#
#
# Revision: 0
# Processed by: cddbd v1.5.1PL2 Copyright (c) Steve Scherf et al.
# Submitted via: FreeRIP 2.944 
#
DISCID=c90d7c0e
DTITLE=Faith Hill - Fireflies
DYEAR=2005
DGENRE=Country
TTITLE0=Sunshine and Summertime
TTITLE1=Mississippi Girl
TTITLE2=Dearly Beloved
TTITLE3=I Ain't Gonna Take It Anymore
TTITLE4=Stealing Kisses
TTITLE5=Fireflies
TTITLE6=Like We Never Lover At All
TTITLE7=I Want You
TTITLE8=The Lucky One
TTITLE9=If You Ask
TTITLE10=We've Got Nothing But Love To Prove
TTITLE11=You Stay With Me
TTITLE12=Wish For You
TTITLE13=Data
EXTD=
EXTT0=
EXTT1=
EXTT2=
EXTT3=
EXTT4=
EXTT5=
EXTT6=
EXTT7=
EXTT8=
EXTT9=
EXTT10=
EXTT11=
EXTT12=
EXTT13=
PLAYORDER=
